<svg width="18" height="18" viewBox="0 0 18 18" fill="none" xmlns="http://www.w3.org/2000/svg">
    <path fill-rule="evenodd" clip-rule="evenodd"
          d="M0 1C0 0.447715 0.447715 0 1 0H17C17.5523 0 18 0.447715 18 1V7C18 7.55228 17.5523 8 17 8H1C0.447716 8 0 7.55228 0 7V1ZM0 11C0 10.4477 0.447715 10 1 10H7C7.55228 10 8 10.4477 8 11V17C8 17.5523 7.55228 18 7 18H1C0.447715 18 0 17.5523 0 17V11ZM11 10C10.4477 10 10 10.4477 10 11V17C10 17.5523 10.4477 18 11 18H17C17.5523 18 18 17.5523 18 17V11C18 10.4477 17.5523 10 17 10H11Z"
          fill="white"/>
</svg>
