<svg width="209" height="191" viewBox="0 0 209 191" fill="none" xmlns="http://www.w3.org/2000/svg">
<path d="M83.6379 64.2998L85.7409 61.7315C86.0447 61.3508 85.9985 61.3047 85.6141 61.0125C84.9528 60.5127 81.604 57.9482 78.1207 57.9482C75.5331 57.9482 71.7653 59.5784 71.7768 64.3882C71.7768 65.5724 72.4343 67.6754 74.5489 68.9019C77.6324 70.6936 78.9742 70.8051 80.3583 71.4279C81.2772 71.8393 81.9077 72.9773 81.2541 74.0769C80.539 75.2842 79.0242 74.9728 77.9976 74.4845C77.2364 74.1231 73.8069 72.2853 73.8069 72.2853C73.6223 72.1815 73.5031 72.2007 73.3609 72.3583L70.8464 75.1958C70.7157 75.3496 70.7426 75.5841 70.9079 75.6994C72.6611 76.9221 74.4335 77.9678 75.6331 78.433C77.9938 79.3519 80.4314 79.2943 81.8231 78.9213C83.8609 78.3792 85.7986 76.0877 86.1408 73.6271C86.506 70.9781 84.9989 68.4944 82.2384 67.4102C80.0161 66.5374 78.6166 66.1029 77.4671 65.5608C76.1329 64.9341 76.0022 63.4847 76.6135 62.7388C77.2248 61.9929 78.3667 61.9122 79.424 62.3466C79.9238 62.5542 81.9154 63.7538 82.8458 64.3613C83.2073 64.5958 83.3803 64.6458 83.6417 64.2998H83.6379Z" stroke="white" stroke-width="1.15342" stroke-miterlimit="10"/>
<path d="M73.1504 56.2752C73.1504 56.2752 74.9228 54.8604 78.7483 54.8604C82.5739 54.8604 84.7961 56.2752 84.7961 56.2752" stroke="white" stroke-width="1.15342" stroke-miterlimit="10"/>
<path d="M69.6738 51.8501C70.5351 51.2157 71.7269 51.3733 72.3421 52.2038C72.9572 53.0342 72.7573 54.2223 71.8999 54.8605" stroke="white" stroke-width="1.15342" stroke-miterlimit="10"/>
<path d="M80.6862 50.7816C80.6862 51.8197 79.8211 52.6579 78.7523 52.6579C77.6834 52.6579 76.8184 51.8159 76.8184 50.7816C76.8184 49.7474 77.6911 48.9131 78.7523 48.9131C79.8134 48.9131 80.6862 49.7551 80.6862 50.7816Z" stroke="white" stroke-width="1.15342" stroke-miterlimit="10"/>
<path d="M79.736 46.8832C79.736 47.4138 79.2938 47.8405 78.7479 47.8405C78.2019 47.8405 77.7598 47.4138 77.7598 46.8832C77.7598 46.3526 78.2058 45.9297 78.7479 45.9297C79.29 45.9297 79.736 46.3565 79.736 46.8832Z" fill="white"/>
<path d="M87.8262 51.8501C86.965 51.2157 85.7731 51.3733 85.158 52.2038C84.5428 53.0342 84.7427 54.2223 85.6001 54.8605" stroke="white" stroke-width="1.15342" stroke-miterlimit="10"/>
<path d="M129.152 61.1625C129.152 61.1625 130.702 60.8357 132.493 62.2198C133.989 63.3771 134.693 64.988 134.693 64.988" stroke="white" stroke-width="1.15342" stroke-miterlimit="10"/>
<path d="M132.291 62.0735L132.268 57.7482C132.268 57.7482 131.287 55.8643 131.137 54.7839C130.73 51.8542 131.676 50.251 132.821 49.1514C135.174 46.883 138.596 46.9522 139 47.1982C139.638 47.5789 139.304 51.3928 138.031 53.592C136.028 57.0562 132.268 57.752 132.268 57.752" stroke="white" stroke-width="1.15342" stroke-miterlimit="10"/>
<path d="M131.983 59.5131C130.426 59.567 127.046 58.0983 124.951 58.8172C121.948 59.8476 120.307 62.4044 119.68 64.4421C119.138 66.2068 119.484 69.5364 120.091 71.4703C121.152 74.8537 124.474 78.6907 127.016 78.9599C128.281 79.0944 130.641 77.5488 131.914 77.5527C133.436 77.5565 135.401 78.8791 136.677 78.6484C139.057 78.214 142.472 73.9732 143.133 71.6472C143.675 69.7402 143.833 65.6301 143.148 63.7693C142.314 61.5009 139.669 58.6673 136.997 58.4251C134.324 58.1829 133.456 59.4593 131.979 59.5131H131.983Z" stroke="white" stroke-width="1.15342" stroke-miterlimit="10"/>
<path d="M49.5137 40.5269L48.9583 39.516C48.4968 39.7696 48.2656 40.3035 48.3964 40.8136C48.5273 41.3237 48.9871 41.6803 49.5137 41.6803V40.5269ZM160.519 40.5269H161.673V39.8446L161.075 39.516L160.519 40.5269ZM160.519 105.315H159.366H160.519ZM149.277 136.757L148.45 135.953L148.45 135.953L149.277 136.757ZM105.874 156.634L105.871 157.788H105.871L105.874 156.634ZM60.3251 136.757L61.2252 136.036L61.2251 136.036L60.3251 136.757ZM49.5175 105.638H48.3641L48.3641 105.642L49.5175 105.638ZM49.5175 40.5269H50.6709V39.3735H49.5175V40.5269ZM49.5137 40.5269C50.0691 41.5378 50.0688 41.538 50.0686 41.5381C50.0686 41.5381 50.0685 41.5381 50.0685 41.5381C50.0686 41.538 50.0691 41.5378 50.0698 41.5374C50.0713 41.5366 50.074 41.5351 50.0779 41.533C50.0858 41.5287 50.0985 41.5219 50.1161 41.5125C50.1514 41.4936 50.2061 41.4647 50.2801 41.4262C50.4282 41.3494 50.6536 41.2346 50.9551 41.0874C51.5581 40.793 52.4655 40.3687 53.6675 39.8576C56.0715 38.8355 59.6537 37.4665 64.3363 36.0955C73.7011 33.3536 87.4675 30.6036 105.016 30.6036V28.2968C87.2244 28.2968 73.2395 31.0851 63.6881 33.8816C58.9127 35.2798 55.2456 36.68 52.7649 37.7347C51.5245 38.2621 50.5806 38.7031 49.943 39.0145C49.6241 39.1701 49.3819 39.2934 49.2173 39.3788C49.1351 39.4215 49.0723 39.4547 49.029 39.4778C49.0074 39.4894 48.9907 39.4984 48.9789 39.5048C48.973 39.508 48.9683 39.5105 48.9649 39.5124C48.9632 39.5133 48.9618 39.5141 48.9607 39.5147C48.9601 39.515 48.9595 39.5153 48.9593 39.5155C48.9587 39.5158 48.9583 39.516 49.5137 40.5269ZM105.016 30.6036C122.565 30.6036 136.332 33.3536 145.697 36.0955C150.379 37.4665 153.961 38.8355 156.365 39.8576C157.567 40.3687 158.475 40.793 159.078 41.0874C159.379 41.2346 159.605 41.3494 159.753 41.4262C159.827 41.4647 159.881 41.4936 159.917 41.5125C159.934 41.5219 159.947 41.5287 159.955 41.533C159.959 41.5351 159.962 41.5366 159.963 41.5374C159.964 41.5378 159.964 41.538 159.964 41.5381C159.964 41.5381 159.964 41.5381 159.964 41.5381C159.964 41.538 159.964 41.5378 160.519 40.5269C161.075 39.516 161.074 39.5158 161.074 39.5155C161.073 39.5153 161.073 39.515 161.072 39.5147C161.071 39.5141 161.07 39.5133 161.068 39.5124C161.064 39.5105 161.06 39.508 161.054 39.5048C161.042 39.4984 161.025 39.4894 161.004 39.4778C160.961 39.4547 160.898 39.4215 160.815 39.3788C160.651 39.2934 160.409 39.1701 160.09 39.0145C159.452 38.7031 158.508 38.2621 157.268 37.7347C154.787 36.68 151.12 35.2798 146.345 33.8816C136.793 31.0851 122.808 28.2968 105.016 28.2968V30.6036ZM159.366 40.5269V105.315H161.673V40.5269H159.366ZM160.519 105.315C159.366 105.315 159.366 105.314 159.366 105.314C159.366 105.314 159.366 105.314 159.366 105.314C159.366 105.315 159.366 105.315 159.366 105.316C159.366 105.317 159.366 105.32 159.366 105.324C159.366 105.332 159.366 105.344 159.365 105.362C159.365 105.396 159.364 105.449 159.363 105.519C159.361 105.66 159.355 105.872 159.345 106.147C159.323 106.697 159.28 107.5 159.194 108.502C159.022 110.509 158.677 113.304 157.987 116.452C156.602 122.776 153.854 130.393 148.45 135.953L150.104 137.561C155.942 131.556 158.815 123.452 160.241 116.946C160.956 113.679 161.314 110.782 161.493 108.7C161.582 107.658 161.627 106.818 161.65 106.236C161.661 105.945 161.667 105.718 161.67 105.562C161.671 105.484 161.672 105.424 161.672 105.382C161.672 105.362 161.672 105.346 161.673 105.334C161.673 105.329 161.673 105.324 161.673 105.321C161.673 105.319 161.673 105.318 161.673 105.317C161.673 105.316 161.673 105.316 161.673 105.316C161.673 105.315 161.673 105.315 160.519 105.315ZM148.45 135.953C145.115 139.385 138.862 144.294 131.212 148.336C123.558 152.38 114.612 155.5 105.876 155.481L105.871 157.788C115.125 157.808 124.453 154.516 132.29 150.376C140.13 146.233 146.584 141.184 150.104 137.561L148.45 135.953ZM105.876 155.481C88.4881 155.443 71.4005 148.736 61.2252 136.036L59.4249 137.478C70.1344 150.845 87.957 157.749 105.871 157.788L105.876 155.481ZM61.2251 136.036C56.001 129.518 53.3539 121.924 52.0174 115.919C51.3505 112.923 51.0136 110.339 50.8435 108.508C50.7585 107.593 50.7154 106.867 50.6934 106.374C50.6825 106.127 50.6768 105.938 50.6739 105.813C50.6725 105.751 50.6717 105.704 50.6713 105.674C50.6711 105.659 50.671 105.648 50.671 105.641C50.671 105.638 50.6709 105.635 50.6709 105.634C50.6709 105.634 50.6709 105.633 50.6709 105.633C50.6709 105.633 50.6709 105.633 50.6709 105.633C50.6709 105.633 50.6709 105.634 49.5175 105.638C48.3641 105.642 48.3641 105.642 48.3641 105.643C48.3641 105.643 48.3641 105.643 48.3641 105.644C48.3641 105.645 48.3641 105.646 48.3641 105.648C48.3641 105.651 48.3642 105.655 48.3642 105.66C48.3643 105.67 48.3644 105.685 48.3647 105.704C48.3652 105.742 48.3661 105.796 48.3677 105.867C48.371 106.007 48.3771 106.212 48.3889 106.476C48.4123 107.004 48.4579 107.766 48.5466 108.721C48.7239 110.631 49.0739 113.313 49.7657 116.42C51.1465 122.624 53.9032 130.589 59.4251 137.478L61.2251 136.036ZM50.6709 105.638V40.5269H48.3641V105.638H50.6709ZM49.5175 39.3735H49.5137V41.6803H49.5175V39.3735Z" fill="white"/>
<path d="M44.7344 36.2365L44.1817 35.2241C43.719 35.4767 43.4864 36.0109 43.6168 36.5217C43.7471 37.0325 44.2072 37.3899 44.7344 37.3899V36.2365ZM165.298 36.2365H166.451V35.5521L165.851 35.2241L165.298 36.2365ZM165.298 106.146H164.144H165.298ZM153.087 140.075L153.911 140.882L153.912 140.882L153.087 140.075ZM105.947 161.521L105.944 162.675H105.944L105.947 161.521ZM56.4762 140.075L57.3741 139.351L57.3739 139.351L56.4762 140.075ZM44.7382 106.499H43.5848L43.5848 106.503L44.7382 106.499ZM44.7382 36.2365H45.8916V35.0831H44.7382V36.2365ZM44.7344 36.2365C45.2871 37.2489 45.2868 37.2491 45.2866 37.2492C45.2866 37.2491 45.2865 37.2492 45.2866 37.2492C45.2868 37.2491 45.2873 37.2488 45.2881 37.2483C45.2898 37.2474 45.2929 37.2458 45.2972 37.2434C45.3059 37.2387 45.3199 37.2312 45.3392 37.221C45.3778 37.2005 45.4376 37.169 45.5184 37.1274C45.6799 37.0441 45.9255 36.9199 46.2537 36.7606C46.9101 36.4422 47.8971 35.9835 49.2043 35.4313C51.8186 34.3268 55.7128 32.8481 60.8027 31.3674C70.9821 28.406 85.9439 25.4366 105.016 25.4366V23.1298C85.7024 23.1298 70.5234 26.137 60.1583 29.1523C54.976 30.66 50.9972 32.1696 48.3065 33.3063C46.9611 33.8747 45.9377 34.3499 45.2467 34.6852C44.9012 34.8528 44.6389 34.9854 44.4609 35.0772C44.372 35.1231 44.3041 35.1587 44.2575 35.1835C44.2342 35.1958 44.2162 35.2055 44.2036 35.2123C44.1973 35.2157 44.1923 35.2184 44.1886 35.2204C44.1868 35.2213 44.1853 35.2222 44.1842 35.2228C44.1836 35.2231 44.183 35.2234 44.1827 35.2236C44.1821 35.2239 44.1817 35.2241 44.7344 36.2365ZM105.016 25.4366C124.088 25.4366 139.05 28.406 149.23 31.3674C154.319 32.8481 158.214 34.3268 160.828 35.4313C162.135 35.9835 163.122 36.4422 163.779 36.7606C164.107 36.9199 164.352 37.0441 164.514 37.1274C164.595 37.169 164.654 37.2005 164.693 37.221C164.712 37.2312 164.726 37.2387 164.735 37.2434C164.739 37.2458 164.742 37.2474 164.744 37.2483C164.745 37.2488 164.745 37.2491 164.746 37.2492C164.746 37.2492 164.746 37.2491 164.746 37.2492C164.745 37.2491 164.745 37.2489 165.298 36.2365C165.851 35.2241 165.85 35.2239 165.85 35.2236C165.849 35.2234 165.849 35.2231 165.848 35.2228C165.847 35.2222 165.845 35.2213 165.844 35.2204C165.84 35.2184 165.835 35.2157 165.829 35.2123C165.816 35.2055 165.798 35.1958 165.775 35.1835C165.728 35.1587 165.66 35.1231 165.571 35.0772C165.393 34.9854 165.131 34.8528 164.786 34.6852C164.095 34.3499 163.071 33.8747 161.726 33.3063C159.035 32.1696 155.056 30.66 149.874 29.1523C139.509 26.137 124.33 23.1298 105.016 23.1298V25.4366ZM164.144 36.2365V106.146H166.451V36.2365H164.144ZM165.298 106.146C164.144 106.146 164.144 106.145 164.144 106.145C164.144 106.145 164.144 106.145 164.144 106.145C164.144 106.145 164.144 106.146 164.144 106.147C164.144 106.149 164.144 106.152 164.144 106.156C164.144 106.165 164.144 106.178 164.144 106.197C164.144 106.234 164.143 106.292 164.142 106.368C164.139 106.521 164.133 106.749 164.121 107.046C164.098 107.641 164.052 108.509 163.958 109.592C163.77 111.759 163.395 114.779 162.645 118.181C161.139 125.011 158.15 133.249 152.262 139.269L153.912 140.882C160.235 134.417 163.351 125.691 164.898 118.677C165.674 115.157 166.062 112.035 166.256 109.791C166.353 108.668 166.402 107.764 166.427 107.136C166.439 106.823 166.445 106.578 166.448 106.411C166.45 106.327 166.45 106.262 166.451 106.218C166.451 106.196 166.451 106.178 166.451 106.166C166.451 106.16 166.451 106.155 166.451 106.152C166.451 106.15 166.451 106.149 166.451 106.148C166.451 106.147 166.451 106.147 166.451 106.146C166.451 106.146 166.451 106.146 165.298 106.146ZM152.262 139.269C148.632 142.98 141.831 148.282 133.514 152.648C125.193 157.015 115.46 160.389 105.949 160.368L105.944 162.675C115.969 162.696 126.082 159.153 134.586 154.69C143.093 150.225 150.094 144.784 153.911 140.882L152.262 139.269ZM105.949 160.368C87.0394 160.326 68.448 153.083 57.3741 139.351L55.5784 140.799C67.1885 155.196 86.5139 162.632 105.944 162.675L105.949 160.368ZM57.3739 139.351C51.6875 132.303 48.8084 124.095 47.3555 117.61C46.6304 114.373 46.2641 111.582 46.0792 109.604C45.9869 108.615 45.9399 107.831 45.9161 107.297C45.9042 107.03 45.8981 106.826 45.8949 106.691C45.8933 106.623 45.8925 106.572 45.8921 106.539C45.8919 106.523 45.8918 106.511 45.8917 106.504C45.8917 106.5 45.8917 106.497 45.8916 106.496C45.8916 106.495 45.8916 106.495 45.8916 106.495C45.8916 106.495 45.8916 106.495 45.8916 106.495C45.8916 106.495 45.8916 106.495 44.7382 106.499C43.5848 106.503 43.5848 106.504 43.5848 106.504C43.5848 106.504 43.5848 106.505 43.5848 106.505C43.5848 106.506 43.5848 106.508 43.5848 106.509C43.5849 106.513 43.5849 106.517 43.5849 106.523C43.585 106.534 43.5852 106.549 43.5854 106.57C43.586 106.61 43.5869 106.668 43.5887 106.744C43.5922 106.895 43.5989 107.116 43.6116 107.4C43.6369 107.968 43.6863 108.789 43.7824 109.818C43.9746 111.875 44.3542 114.765 45.1045 118.114C46.6024 124.8 49.5923 133.38 55.5785 140.8L57.3739 139.351ZM45.8916 106.499V36.2365H43.5848V106.499H45.8916ZM44.7382 35.0831H44.7344V37.3899H44.7382V35.0831Z" fill="white"/>
<path d="M49.5137 99.4485C49.5137 99.4485 72.7013 93.1892 105.87 93.0393C137.055 92.9009 160.515 99.4485 160.515 99.4485" stroke="white" stroke-width="2.30685" stroke-miterlimit="10"/>
<path d="M89.6445 93.5621C89.6445 93.5621 92.7934 83.1582 105.012 83.1582C117.231 83.1582 120.437 93.4506 120.437 93.4506" stroke="white" stroke-width="2.30685" stroke-miterlimit="10"/>
<path d="M105.016 83.1584V29.4473" stroke="white" stroke-width="2.30685" stroke-miterlimit="10"/>
<path d="M84.9653 118.187C84.9653 119.19 84.6116 120.113 84.0195 120.84C83.6504 121.293 83.1775 121.67 82.6431 121.936C82.62 121.951 82.5854 121.959 82.5624 121.978V119.975C82.5624 119.975 82.5624 118.187 80.7669 118.187C80.2824 118.187 79.9172 118.318 79.6634 118.525C78.9791 119.037 78.9791 119.975 78.9791 119.975V121.978C77.5527 121.309 76.5723 119.859 76.5723 118.191C76.5723 117.937 76.5953 117.687 76.6376 117.449C76.7683 116.699 77.099 116.022 77.5681 115.473C78.3408 114.565 79.4866 114 80.763 114C83.0776 114 84.9653 115.876 84.9653 118.191V118.187Z" stroke="white" stroke-width="1.15342" stroke-miterlimit="10"/>
<path d="M74.1695 134.947C69.0944 134.508 65.1074 130.252 65.1074 125.062C65.1074 119.871 69.0444 115.665 74.0772 115.185C73.7312 115.95 73.5159 116.792 73.4505 117.672C70.2555 118.61 67.9141 121.559 67.9141 125.062C67.9141 128.564 70.2632 131.521 73.4659 132.451C73.5466 133.339 73.7965 134.181 74.1656 134.947H74.1695Z" stroke="white" stroke-width="1.15342" stroke-miterlimit="10"/>
<path d="M82.5618 119.971V129.549C82.5618 129.549 82.5618 131.252 80.7663 131.252C80.5779 131.252 80.4049 131.237 80.255 131.194C78.9785 130.906 78.9785 129.549 78.9785 129.549V119.971C78.9785 119.971 78.9785 119.033 79.6629 118.522C79.9166 118.314 80.2819 118.184 80.7663 118.184C82.5618 118.184 82.5618 119.971 82.5618 119.971Z" stroke="white" stroke-width="1.15342" stroke-miterlimit="10"/>
<path d="M87.2305 128.284C86.7768 127.469 86.1847 126.734 85.4773 126.134C85.3043 125.984 85.1236 125.854 84.9429 125.723C84.7122 125.565 84.4738 125.427 84.2354 125.296C84.0124 125.181 83.7818 125.066 83.5434 124.973C83.7818 124.873 84.0124 124.766 84.2354 124.643C84.4738 124.52 84.7045 124.377 84.9275 124.224C85.1159 124.093 85.2966 123.951 85.4811 123.805C86.1001 123.293 86.6269 122.678 87.0459 121.974C87.1113 121.867 87.1844 121.751 87.242 121.636C87.7841 120.606 88.0994 119.429 88.0994 118.183C88.0994 114.131 84.8198 110.852 80.7675 110.852C77.784 110.852 75.2234 112.632 74.0776 115.185C73.7316 115.95 73.5163 116.792 73.4509 117.672C73.4432 117.837 73.4355 118.01 73.4355 118.183C73.4355 121.248 75.3233 123.874 77.9916 124.969C75.3233 126.058 73.4355 128.683 73.4355 131.748C73.4355 131.986 73.4432 132.217 73.4701 132.447C73.5509 133.336 73.8008 134.178 74.1699 134.943C75.3541 137.388 77.8685 139.076 80.7675 139.076C84.8198 139.076 88.0994 135.796 88.0994 131.744C88.0994 130.502 87.788 129.322 87.242 128.291L87.2343 128.276L87.2305 128.284ZM80.7636 135.95C79.5525 135.95 78.4645 135.439 77.6994 134.616C77.1957 134.082 76.842 133.413 76.6767 132.682C76.6036 132.386 76.569 132.071 76.569 131.752C76.569 130.079 77.5494 128.63 78.9758 127.965V121.978C77.5494 121.309 76.569 119.86 76.569 118.191C76.569 117.937 76.5921 117.688 76.6344 117.449C76.7651 116.699 77.0957 116.023 77.5648 115.473C78.3376 114.566 79.4833 114 80.7598 114C83.0743 114 84.9621 115.877 84.9621 118.191C84.9621 119.195 84.6084 120.117 84.0163 120.844C83.6472 121.298 83.1743 121.675 82.6399 121.94C82.6168 121.955 82.5822 121.963 82.5591 121.982V127.968C82.6091 127.991 82.6668 128.018 82.7168 128.041C83.2435 128.322 83.7125 128.71 84.0663 129.179C84.6353 129.887 84.9659 130.787 84.9659 131.759C84.9659 134.082 83.0782 135.962 80.7636 135.962V135.95Z" stroke="white" stroke-width="1.15342" stroke-miterlimit="10"/>
<path d="M84.9653 131.752C84.9653 134.074 83.0775 135.954 80.763 135.954C79.5519 135.954 78.4638 135.443 77.6987 134.62C77.1951 134.086 76.8413 133.417 76.676 132.686C76.603 132.39 76.5684 132.075 76.5684 131.756C76.5684 130.083 77.5488 128.634 78.9752 127.969V129.557C78.9752 129.557 78.9752 130.914 80.2516 131.202C80.4016 131.244 80.5746 131.26 80.763 131.26C82.5585 131.26 82.5585 129.557 82.5585 129.557V127.969C82.6085 127.992 82.6661 128.019 82.7161 128.042C83.2428 128.322 83.7119 128.711 84.0656 129.18C84.6346 129.887 84.9653 130.787 84.9653 131.76V131.752Z" stroke="white" stroke-width="1.15342" stroke-miterlimit="10"/>
<path d="M73.4352 131.752C73.4352 131.991 73.4429 132.221 73.4698 132.452C70.2671 131.522 67.918 128.565 67.918 125.062C67.918 121.56 70.2556 118.615 73.4544 117.673C73.4467 117.838 73.439 118.011 73.439 118.184C73.439 121.248 75.3268 123.874 77.995 124.97C75.3268 126.058 73.439 128.684 73.439 131.748L73.4352 131.752Z" stroke="white" stroke-width="1.15342" stroke-miterlimit="10"/>
<path d="M98.5029 119.821H95.6578C94.9698 119.821 94.4121 120.379 94.4121 121.067V128.88C94.4121 129.567 94.9698 130.125 95.6578 130.125H98.5029C99.1909 130.125 99.7486 129.567 99.7486 128.88V121.067C99.7486 120.379 99.1909 119.821 98.5029 119.821Z" stroke="white" stroke-width="1.15342" stroke-miterlimit="10"/>
<path d="M102.639 119.406H100.878C100.451 119.406 100.105 119.752 100.105 120.179V129.264C100.105 129.691 100.451 130.037 100.878 130.037H102.639C103.066 130.037 103.412 129.691 103.412 129.264V120.179C103.412 119.752 103.066 119.406 102.639 119.406Z" stroke="white" stroke-width="1.15342" stroke-miterlimit="10"/>
<path d="M118.661 121.744V128.203C118.661 129.472 117.638 130.494 116.37 130.494C115.101 130.494 114.078 129.472 114.078 128.203V121.744C114.078 120.475 115.109 119.452 116.37 119.452C117.004 119.452 117.581 119.706 117.992 120.121C118.403 120.536 118.661 121.109 118.661 121.744Z" stroke="white" stroke-width="1.15342" stroke-miterlimit="10"/>
<path d="M140.48 121.744V128.203C140.48 128.295 140.473 128.376 140.473 128.468C140.342 129.614 139.419 130.494 138.281 130.494C137.07 130.494 136.082 129.472 136.082 128.203V121.744C136.082 120.475 137.07 119.452 138.281 119.452C138.893 119.452 139.442 119.706 139.838 120.121C140.161 120.459 140.392 120.905 140.457 121.405C140.473 121.513 140.48 121.628 140.48 121.744Z" stroke="white" stroke-width="1.15342" stroke-miterlimit="10"/>
<path d="M94.4117 121.975V128.284H87.2298C86.7761 127.469 86.184 126.734 85.4766 126.135L94.4117 126.127V123.797L85.4766 123.805C86.0956 123.293 86.6223 122.678 87.0414 121.975H94.4117Z" stroke="white" stroke-width="1.15342" stroke-miterlimit="10"/>
<path d="M94.4121 123.805V126.135H85.5345C85.3577 125.985 85.1693 125.854 84.9847 125.723C84.7464 125.566 84.5003 125.427 84.2542 125.296C84.0236 125.181 83.789 125.066 83.543 124.973C83.789 124.874 84.0274 124.766 84.2542 124.643C84.5003 124.52 84.7387 124.378 84.9655 124.224C85.1616 124.093 85.3462 123.951 85.5345 123.805H94.4121Z" stroke="white" stroke-width="1.15342" stroke-miterlimit="10"/>
<path d="M87.2383 121.636C87.4113 121.628 89.4951 121.521 91.1407 119.817C92.6824 118.229 93.4783 116.638 93.4783 116.638L96.2196 119.963" stroke="white" stroke-width="1.15342" stroke-miterlimit="10"/>
<path d="M87.2383 128.299C87.4113 128.307 89.4951 128.414 91.1407 130.117C92.6824 131.705 93.4783 133.297 93.4783 133.297L96.2119 129.979L96.2196 129.971" stroke="white" stroke-width="1.15342" stroke-miterlimit="10"/>
<path d="M114.081 121.975H103.547V127.961H114.081V121.975Z" stroke="white" stroke-width="1.15342" stroke-miterlimit="10"/>
<path d="M136.081 121.975H118.66V127.961H136.081V121.975Z" stroke="white" stroke-width="1.15342" stroke-miterlimit="10"/>
<path d="M134.689 116.677V121.971H119.502V116.677H124.419C124.419 118.161 125.615 119.353 127.095 119.353C128.576 119.353 129.779 118.157 129.779 116.677H134.689Z" stroke="white" stroke-width="1.15342" stroke-miterlimit="10"/>
<path d="M126.33 111.175H119.502V114.412H126.33V111.175Z" stroke="white" stroke-width="1.15342" stroke-miterlimit="10"/>
<path d="M134.69 111.175H127.861V114.412H134.69V111.175Z" stroke="white" stroke-width="1.15342" stroke-miterlimit="10"/>
<path d="M126.33 106.119V109.437H125.269L120.936 109.445L118.968 109.452H118.918C117.822 109.445 116.949 108.695 116.949 107.795C116.949 106.896 117.837 106.115 118.941 106.115H126.33V106.119Z" stroke="white" stroke-width="1.15342" stroke-miterlimit="10"/>
<path d="M137.796 107.802C137.796 108.702 136.873 109.444 135.747 109.444H127.838V106.122L135.689 106.145H135.747C136.873 106.145 137.796 106.887 137.796 107.802Z" stroke="white" stroke-width="1.15342" stroke-miterlimit="10"/>
<path d="M125.267 109.44V111.174H120.934V109.452L125.267 109.44Z" stroke="white" stroke-width="1.15342" stroke-miterlimit="10"/>
<path d="M125.267 114.412H125.509C124.971 114.897 124.482 115.454 124.425 116.496H120.934V114.412H125.267Z" stroke="white" stroke-width="1.15342" stroke-miterlimit="10"/>
<path d="M133.224 109.44H128.891V111.174H133.224V109.44Z" stroke="white" stroke-width="1.15342" stroke-miterlimit="10"/>
<path d="M133.224 114.412V116.496H129.772C129.779 115.454 129.13 114.947 128.564 114.412H133.224Z" stroke="white" stroke-width="1.15342" stroke-miterlimit="10"/>
<path d="M144.786 124.931C144.786 125.904 144.39 126.784 143.748 127.426C143.114 128.068 142.226 128.464 141.261 128.464H140.469C140.469 128.372 140.476 128.291 140.476 128.199V121.74C140.476 121.624 140.469 121.509 140.453 121.401H141.261C143.194 121.401 144.786 122.982 144.786 124.927V124.931Z" stroke="white" stroke-width="1.15342" stroke-miterlimit="10"/>
<path d="M163.555 137.192C163.555 137.192 144.058 169.557 104.4 169.557C62.7881 168.896 47.3399 137.192 47.3399 137.192L30.6152 145.882C30.6152 145.882 52.6648 189 104.404 189C159.541 189 179.849 145.882 179.849 145.882L163.559 137.192H163.555Z" stroke="white" stroke-width="2.30685" stroke-miterlimit="10"/>
<path d="M39.2356 141.403L35.9368 134.947H13.6719V165.974L24.9524 156.397" stroke="white" stroke-width="2.30685" stroke-miterlimit="10"/>
<path d="M44.7335 164.244L37.9283 171.326C37.9283 171.326 27.5437 160.188 24.4217 155.655C17.4704 145.555 13.668 134.947 13.668 134.947" stroke="white" stroke-width="2.30685" stroke-miterlimit="10"/>
<path d="M171.492 141.482L174.745 134.965L196.306 134.923L196.36 166.008L185.076 156.43" stroke="white" stroke-width="2.30685" stroke-miterlimit="10"/>
<path d="M165.936 164.554L172.741 171.636C172.741 171.636 182.483 160.044 185.605 155.508C192.557 145.407 196.359 134.8 196.359 134.8" stroke="white" stroke-width="2.30685" stroke-miterlimit="10"/>
<path d="M46.1221 147.238H41.9121V151.448H46.1221V147.238Z" fill="white" stroke="white" stroke-width="0.384474" stroke-miterlimit="10"/>
<path d="M168.042 147.238H163.832V151.448H168.042V147.238Z" fill="white" stroke="white" stroke-width="0.384474" stroke-miterlimit="10"/>
<path d="M131.559 77.5645V79.2984" stroke="white" stroke-width="1.15342" stroke-miterlimit="10"/>
<path d="M9.17277 97.225C9.17277 98.2277 8.99173 99.0942 8.62965 99.8246C8.26757 100.555 7.77086 101.118 7.13954 101.514C6.50821 101.91 5.78714 102.108 4.97632 102.108C4.1655 102.108 3.44443 101.91 2.81311 101.514C2.18178 101.118 1.68508 100.555 1.323 99.8246C0.960913 99.0942 0.779872 98.2277 0.779872 97.225C0.779872 96.2223 0.960913 95.3558 1.323 94.6254C1.68508 93.8951 2.18178 93.3318 2.81311 92.9357C3.44443 92.5396 4.1655 92.3415 4.97632 92.3415C5.78714 92.3415 6.50821 92.5396 7.13954 92.9357C7.77086 93.3318 8.26757 93.8951 8.62965 94.6254C8.99173 95.3558 9.17277 96.2223 9.17277 97.225ZM8.05867 97.225C8.05867 96.4018 7.92096 95.707 7.64553 95.1407C7.37319 94.5744 7.00337 94.1458 6.53607 93.8549C6.07186 93.5639 5.55194 93.4185 4.97632 93.4185C4.4007 93.4185 3.87924 93.5639 3.41194 93.8549C2.94773 94.1458 2.57791 94.5744 2.30248 95.1407C2.03014 95.707 1.89397 96.4018 1.89397 97.225C1.89397 98.0482 2.03014 98.743 2.30248 99.3093C2.57791 99.8756 2.94773 100.304 3.41194 100.595C3.87924 100.886 4.4007 101.032 4.97632 101.032C5.55194 101.032 6.07186 100.886 6.53607 100.595C7.00337 100.304 7.37319 99.8756 7.64553 99.3093C7.92096 98.743 8.05867 98.0482 8.05867 97.225ZM18.7587 95.4424H17.6075C17.5394 95.1113 17.4202 94.8204 17.25 94.5697C17.0829 94.3191 16.8786 94.1086 16.6373 93.9384C16.399 93.7651 16.1344 93.6351 15.8435 93.5485C15.5526 93.4618 15.2493 93.4185 14.9336 93.4185C14.358 93.4185 13.8365 93.5639 13.3692 93.8549C12.905 94.1458 12.5352 94.5744 12.2598 95.1407C11.9874 95.707 11.8513 96.4018 11.8513 97.225C11.8513 98.0482 11.9874 98.743 12.2598 99.3093C12.5352 99.8756 12.905 100.304 13.3692 100.595C13.8365 100.886 14.358 101.032 14.9336 101.032C15.2493 101.032 15.5526 100.988 15.8435 100.902C16.1344 100.815 16.399 100.686 16.6373 100.516C16.8786 100.343 17.0829 100.131 17.25 99.8803C17.4202 99.6265 17.5394 99.3356 17.6075 99.0076H18.7587C18.672 99.4934 18.5142 99.9283 18.2852 100.312C18.0562 100.696 17.7715 101.022 17.4311 101.291C17.0906 101.558 16.7084 101.76 16.2845 101.9C15.8636 102.039 15.4133 102.108 14.9336 102.108C14.1228 102.108 13.4017 101.91 12.7704 101.514C12.1391 101.118 11.6424 100.555 11.2803 99.8246C10.9182 99.0942 10.7372 98.2277 10.7372 97.225C10.7372 96.2223 10.9182 95.3558 11.2803 94.6254C11.6424 93.8951 12.1391 93.3318 12.7704 92.9357C13.4017 92.5396 14.1228 92.3415 14.9336 92.3415C15.4133 92.3415 15.8636 92.4112 16.2845 92.5504C16.7084 92.6897 17.0906 92.8939 17.4311 93.1632C17.7715 93.4293 18.0562 93.7543 18.2852 94.138C18.5142 94.5187 18.672 94.9535 18.7587 95.4424ZM20.619 101.979V92.4715H21.7703V96.7051H26.8394V92.4715H27.9907V101.979H26.8394V97.7264H21.7703V101.979H20.619ZM30.9453 102.053C30.7163 102.053 30.5198 101.971 30.3558 101.807C30.1918 101.643 30.1098 101.446 30.1098 101.217C30.1098 100.988 30.1918 100.792 30.3558 100.628C30.5198 100.464 30.7163 100.382 30.9453 100.382C31.1744 100.382 31.3709 100.464 31.5349 100.628C31.6989 100.792 31.7809 100.988 31.7809 101.217C31.7809 101.369 31.7422 101.508 31.6649 101.635C31.5906 101.762 31.49 101.864 31.3631 101.941C31.2393 102.016 31.1001 102.053 30.9453 102.053Z" fill="white"/>
<path d="M8.62965 99.8246L8.45742 99.7392L8.62965 99.8246ZM7.13954 101.514L7.24171 101.677H7.24171L7.13954 101.514ZM2.81311 101.514L2.71094 101.677L2.81311 101.514ZM1.323 99.8246L1.49523 99.7392L1.323 99.8246ZM1.323 94.6254L1.15076 94.5401L1.323 94.6254ZM7.13954 92.9357L7.24171 92.7729L7.13954 92.9357ZM8.62965 94.6254L8.45742 94.7108V94.7108L8.62965 94.6254ZM7.64553 95.1407L7.47228 95.224L7.47265 95.2248L7.64553 95.1407ZM6.53607 93.8549L6.43398 94.0177L6.43447 94.0181L6.53607 93.8549ZM3.41194 93.8549L3.31034 93.6917L3.30986 93.692L3.41194 93.8549ZM2.30248 95.1407L2.1296 95.0566L2.12923 95.0574L2.30248 95.1407ZM2.30248 99.3093L2.12923 99.3926L2.1296 99.3934L2.30248 99.3093ZM3.41194 100.595L3.30986 100.758L3.31034 100.758L3.41194 100.595ZM6.53607 100.595L6.43447 100.432L6.43399 100.432L6.53607 100.595ZM7.64553 99.3093L7.47265 99.2252L7.47228 99.226L7.64553 99.3093ZM8.98054 97.225C8.98054 98.2048 8.80366 99.0408 8.45742 99.7392L8.80188 99.91C9.1798 99.1477 9.36501 98.2506 9.36501 97.225H8.98054ZM8.45742 99.7392C8.10956 100.441 7.63585 100.976 7.03737 101.351L7.24171 101.677C7.90588 101.26 8.42557 100.669 8.80188 99.91L8.45742 99.7392ZM7.03737 101.351C6.43934 101.727 5.7543 101.916 4.97632 101.916V102.301C5.81999 102.301 6.57709 102.094 7.24171 101.677L7.03737 101.351ZM4.97632 101.916C4.19835 101.916 3.51331 101.727 2.91528 101.351L2.71094 101.677C3.37556 102.094 4.13266 102.301 4.97632 102.301V101.916ZM2.91528 101.351C2.3168 100.976 1.84308 100.441 1.49523 99.7392L1.15076 99.91C1.52708 100.669 2.04677 101.26 2.71094 101.677L2.91528 101.351ZM1.49523 99.7392C1.14898 99.0408 0.972109 98.2048 0.972109 97.225H0.587634C0.587634 98.2506 0.772843 99.1477 1.15076 99.91L1.49523 99.7392ZM0.972109 97.225C0.972109 96.2453 1.14898 95.4092 1.49523 94.7108L1.15076 94.5401C0.772843 95.3024 0.587634 96.1994 0.587634 97.225H0.972109ZM1.49523 94.7108C1.84308 94.0092 2.3168 93.4741 2.91528 93.0986L2.71094 92.7729C2.04677 93.1896 1.52708 93.781 1.15076 94.5401L1.49523 94.7108ZM2.91528 93.0986C3.51331 92.7233 4.19835 92.5338 4.97632 92.5338V92.1493C4.13266 92.1493 3.37556 92.3559 2.71094 92.7729L2.91528 93.0986ZM4.97632 92.5338C5.7543 92.5338 6.43934 92.7233 7.03737 93.0986L7.24171 92.7729C6.57709 92.3559 5.81999 92.1493 4.97632 92.1493V92.5338ZM7.03737 93.0986C7.63585 93.4741 8.10956 94.0092 8.45742 94.7108L8.80188 94.5401C8.42557 93.781 7.90588 93.1896 7.24171 92.7729L7.03737 93.0986ZM8.45742 94.7108C8.80366 95.4092 8.98054 96.2453 8.98054 97.225H9.36501C9.36501 96.1994 9.1798 95.3024 8.80188 94.5401L8.45742 94.7108ZM8.25091 97.225C8.25091 96.3813 8.10987 95.6559 7.8184 95.0566L7.47265 95.2248C7.73205 95.7582 7.86644 96.4223 7.86644 97.225H8.25091ZM7.81877 95.0574C7.53292 94.463 7.14016 94.0045 6.63766 93.6917L6.43447 94.0181C6.86658 94.287 7.21346 94.6858 7.47228 95.224L7.81877 95.0574ZM6.63815 93.692C6.14175 93.3809 5.58613 93.2263 4.97632 93.2263V93.6107C5.51776 93.6107 6.00196 93.747 6.43399 94.0177L6.63815 93.692ZM4.97632 93.2263C4.36651 93.2263 3.80957 93.3809 3.31034 93.6917L3.51353 94.0181C3.94892 93.747 4.43489 93.6107 4.97632 93.6107V93.2263ZM3.30986 93.692C2.81078 94.0047 2.41838 94.4629 2.1296 95.0566L2.47535 95.2248C2.73744 94.6859 3.08467 94.2868 3.51402 94.0177L3.30986 93.692ZM2.12923 95.0574C1.84115 95.6565 1.70174 96.3815 1.70174 97.225H2.08621C2.08621 96.4221 2.21914 95.7576 2.47573 95.224L2.12923 95.0574ZM1.70174 97.225C1.70174 98.0685 1.84115 98.7935 2.12923 99.3926L2.47573 99.226C2.21914 98.6924 2.08621 98.0279 2.08621 97.225H1.70174ZM2.1296 99.3934C2.41838 99.9872 2.81078 100.445 3.30986 100.758L3.51402 100.432C3.08467 100.163 2.73744 99.7641 2.47535 99.2252L2.1296 99.3934ZM3.31034 100.758C3.80957 101.069 4.36651 101.224 4.97632 101.224V100.839C4.43489 100.839 3.94892 100.703 3.51353 100.432L3.31034 100.758ZM4.97632 101.224C5.58613 101.224 6.14175 101.069 6.63815 100.758L6.43399 100.432C6.00196 100.703 5.51776 100.839 4.97632 100.839V101.224ZM6.63766 100.758C7.14016 100.446 7.53292 99.9871 7.81877 99.3926L7.47228 99.226C7.21346 99.7642 6.86658 100.163 6.43447 100.432L6.63766 100.758ZM7.8184 99.3934C8.10987 98.7941 8.25091 98.0687 8.25091 97.225H7.86644C7.86644 98.0277 7.73205 98.6919 7.47265 99.2252L7.8184 99.3934ZM18.7587 95.4424V95.6347H18.988L18.948 95.4089L18.7587 95.4424ZM17.6075 95.4424L17.4192 95.4812L17.4507 95.6347H17.6075V95.4424ZM17.25 94.5697L17.0901 94.6764L17.091 94.6777L17.25 94.5697ZM16.6373 93.9384L16.5242 94.0939L16.5265 94.0955L16.6373 93.9384ZM15.8435 93.5485L15.7886 93.7327L15.8435 93.5485ZM13.3692 93.8549L13.2676 93.6917L13.2671 93.692L13.3692 93.8549ZM12.2598 95.1407L12.0869 95.0566L12.0865 95.0574L12.2598 95.1407ZM12.2598 99.3093L12.0865 99.3926L12.0869 99.3934L12.2598 99.3093ZM13.3692 100.595L13.2671 100.758L13.2676 100.758L13.3692 100.595ZM15.8435 100.902L15.7886 100.717L15.8435 100.902ZM16.6373 100.516L16.749 100.673L16.7494 100.672L16.6373 100.516ZM17.25 99.8803L17.0904 99.7732L17.0901 99.7737L17.25 99.8803ZM17.6075 99.0076V98.8153H17.451L17.4192 98.9685L17.6075 99.0076ZM18.7587 99.0076L18.9479 99.0413L18.9883 98.8153H18.7587V99.0076ZM18.2852 100.312L18.1201 100.213V100.213L18.2852 100.312ZM17.4311 101.291L17.5495 101.443L17.5503 101.442L17.4311 101.291ZM16.2845 101.9L16.2245 101.717L16.2241 101.717L16.2845 101.9ZM12.7704 101.514L12.6682 101.677L12.7704 101.514ZM11.2803 99.8246L11.4525 99.7392L11.2803 99.8246ZM11.2803 94.6254L11.1081 94.5401L11.2803 94.6254ZM16.2845 92.5504L16.2241 92.7329L16.2245 92.7331L16.2845 92.5504ZM17.4311 93.1632L17.3118 93.314L17.3127 93.3146L17.4311 93.1632ZM18.2852 94.138L18.1201 94.2365L18.1205 94.2371L18.2852 94.138ZM18.7587 95.2502H17.6075V95.6347H18.7587V95.2502ZM17.7958 95.4037C17.7232 95.0507 17.595 94.7357 17.4091 94.4617L17.091 94.6777C17.2454 94.9052 17.3556 95.172 17.4192 95.4812L17.7958 95.4037ZM17.41 94.4631C17.23 94.1931 17.0092 93.9654 16.748 93.7813L16.5265 94.0955C16.7481 94.2518 16.9358 94.445 17.0901 94.6764L17.41 94.4631ZM16.7503 93.7829C16.4939 93.5964 16.2095 93.4569 15.8983 93.3642L15.7886 93.7327C16.0592 93.8133 16.3041 93.9338 16.5242 94.0939L16.7503 93.7829ZM15.8983 93.3642C15.5889 93.2721 15.2671 93.2263 14.9336 93.2263V93.6107C15.2314 93.6107 15.5162 93.6516 15.7886 93.7327L15.8983 93.3642ZM14.9336 93.2263C14.3238 93.2263 13.7669 93.3809 13.2676 93.6917L13.4708 94.0181C13.9062 93.747 14.3922 93.6107 14.9336 93.6107V93.2263ZM13.2671 93.692C12.7681 94.0047 12.3757 94.4629 12.0869 95.0566L12.4326 95.2248C12.6947 94.6859 13.042 94.2868 13.4713 94.0177L13.2671 93.692ZM12.0865 95.0574C11.7984 95.6565 11.659 96.3815 11.659 97.225H12.0435C12.0435 96.4221 12.1764 95.7576 12.433 95.224L12.0865 95.0574ZM11.659 97.225C11.659 98.0685 11.7984 98.7935 12.0865 99.3926L12.433 99.226C12.1764 98.6924 12.0435 98.0279 12.0435 97.225H11.659ZM12.0869 99.3934C12.3757 99.9872 12.7681 100.445 13.2671 100.758L13.4713 100.432C13.042 100.163 12.6947 99.7641 12.4326 99.2252L12.0869 99.3934ZM13.2676 100.758C13.7669 101.069 14.3238 101.224 14.9336 101.224V100.839C14.3922 100.839 13.9062 100.703 13.4708 100.432L13.2676 100.758ZM14.9336 101.224C15.2671 101.224 15.5889 101.178 15.8983 101.086L15.7886 100.717C15.5162 100.798 15.2314 100.839 14.9336 100.839V101.224ZM15.8983 101.086C16.2089 100.993 16.4928 100.856 16.749 100.673L16.5255 100.36C16.3051 100.517 16.0599 100.637 15.7886 100.717L15.8983 101.086ZM16.7494 100.672C17.0098 100.485 17.2302 100.257 17.41 99.9869L17.0901 99.7737C16.9356 100.005 16.7475 100.2 16.5251 100.36L16.7494 100.672ZM17.4097 99.9874C17.595 99.7111 17.723 99.3966 17.7957 99.0466L17.4192 98.9685C17.3557 99.2746 17.2455 99.542 17.0904 99.7732L17.4097 99.9874ZM17.6075 99.1998H18.7587V98.8153H17.6075V99.1998ZM18.5694 98.9738C18.4864 99.4392 18.3361 99.8517 18.1201 100.213L18.4503 100.411C18.6924 100.005 18.8576 99.5477 18.9479 99.0413L18.5694 98.9738ZM18.1201 100.213C17.9027 100.578 17.6334 100.886 17.3118 101.141L17.5503 101.442C17.9096 101.158 18.2097 100.814 18.4503 100.411L18.1201 100.213ZM17.3127 101.14C16.9903 101.392 16.628 101.584 16.2245 101.717L16.3444 102.082C16.7889 101.936 17.1909 101.723 17.5495 101.443L17.3127 101.14ZM16.2241 101.717C15.8242 101.849 15.3945 101.916 14.9336 101.916V102.301C15.4321 102.301 15.903 102.228 16.3448 102.082L16.2241 101.717ZM14.9336 101.916C14.1556 101.916 13.4706 101.727 12.8726 101.351L12.6682 101.677C13.3328 102.094 14.0899 102.301 14.9336 102.301V101.916ZM12.8726 101.351C12.2741 100.976 11.8004 100.441 11.4525 99.7392L11.1081 99.91C11.4844 100.669 12.0041 101.26 12.6682 101.677L12.8726 101.351ZM11.4525 99.7392C11.1063 99.0408 10.9294 98.2048 10.9294 97.225H10.5449C10.5449 98.2506 10.7301 99.1477 11.1081 99.91L11.4525 99.7392ZM10.9294 97.225C10.9294 96.2453 11.1063 95.4092 11.4525 94.7108L11.1081 94.5401C10.7301 95.3024 10.5449 96.1994 10.5449 97.225H10.9294ZM11.4525 94.7108C11.8004 94.0092 12.2741 93.4741 12.8726 93.0986L12.6682 92.7729C12.0041 93.1896 11.4844 93.781 11.1081 94.5401L11.4525 94.7108ZM12.8726 93.0986C13.4706 92.7233 14.1556 92.5338 14.9336 92.5338V92.1493C14.0899 92.1493 13.3328 92.3559 12.6682 92.7729L12.8726 93.0986ZM14.9336 92.5338C15.3945 92.5338 15.8242 92.6006 16.2241 92.7329L16.3448 92.3679C15.903 92.2217 15.4321 92.1493 14.9336 92.1493V92.5338ZM16.2245 92.7331C16.6276 92.8655 16.9896 93.0591 17.3118 93.314L17.5503 93.0124C17.1917 92.7287 16.7893 92.5139 16.3444 92.3678L16.2245 92.7331ZM17.3127 93.3146C17.6337 93.5657 17.9029 93.8725 18.1201 94.2365L18.4503 94.0395C18.2095 93.6361 17.9092 93.293 17.5495 93.0117L17.3127 93.3146ZM18.1205 94.2371C18.336 94.5954 18.4864 95.0075 18.5694 95.476L18.948 95.4089C18.8577 94.8995 18.6924 94.442 18.4499 94.0389L18.1205 94.2371ZM20.619 101.979H20.4268V102.171H20.619V101.979ZM20.619 92.4715V92.2793H20.4268V92.4715H20.619ZM21.7703 92.4715H21.9625V92.2793H21.7703V92.4715ZM21.7703 96.7051H21.578V96.8973H21.7703V96.7051ZM26.8394 96.7051V96.8973H27.0317V96.7051H26.8394ZM26.8394 92.4715V92.2793H26.6472V92.4715H26.8394ZM27.9907 92.4715H28.1829V92.2793H27.9907V92.4715ZM27.9907 101.979V102.171H28.1829V101.979H27.9907ZM26.8394 101.979H26.6472V102.171H26.8394V101.979ZM26.8394 97.7264H27.0317V97.5341H26.8394V97.7264ZM21.7703 97.7264V97.5341H21.578V97.7264H21.7703ZM21.7703 101.979V102.171H21.9625V101.979H21.7703ZM20.8112 101.979V92.4715H20.4268V101.979H20.8112ZM20.619 92.6637H21.7703V92.2793H20.619V92.6637ZM21.578 92.4715V96.7051H21.9625V92.4715H21.578ZM21.7703 96.8973H26.8394V96.5129H21.7703V96.8973ZM27.0317 96.7051V92.4715H26.6472V96.7051H27.0317ZM26.8394 92.6637H27.9907V92.2793H26.8394V92.6637ZM27.7984 92.4715V101.979H28.1829V92.4715H27.7984ZM27.9907 101.786H26.8394V102.171H27.9907V101.786ZM27.0317 101.979V97.7264H26.6472V101.979H27.0317ZM26.8394 97.5341H21.7703V97.9186H26.8394V97.5341ZM21.578 97.7264V101.979H21.9625V97.7264H21.578ZM21.7703 101.786H20.619V102.171H21.7703V101.786ZM30.3558 101.807L30.4917 101.671L30.3558 101.807ZM31.5349 100.628L31.6708 100.492L31.5349 100.628ZM31.6649 101.635L31.5007 101.535L31.499 101.538L31.6649 101.635ZM31.3631 101.941L31.462 102.106L31.4632 102.106L31.3631 101.941ZM30.9453 101.861C30.7681 101.861 30.6202 101.799 30.4917 101.671L30.2199 101.943C30.4194 102.142 30.6646 102.245 30.9453 102.245V101.861ZM30.4917 101.671C30.3632 101.542 30.302 101.395 30.302 101.217H29.9175C29.9175 101.498 30.0203 101.743 30.2199 101.943L30.4917 101.671ZM30.302 101.217C30.302 101.04 30.3632 100.892 30.4917 100.764L30.2199 100.492C30.0203 100.691 29.9175 100.936 29.9175 101.217H30.302ZM30.4917 100.764C30.6202 100.635 30.7681 100.574 30.9453 100.574V100.189C30.6646 100.189 30.4194 100.292 30.2199 100.492L30.4917 100.764ZM30.9453 100.574C31.1226 100.574 31.2705 100.635 31.399 100.764L31.6708 100.492C31.4713 100.292 31.2261 100.189 30.9453 100.189V100.574ZM31.399 100.764C31.5275 100.892 31.5887 101.04 31.5887 101.217H31.9732C31.9732 100.936 31.8704 100.691 31.6708 100.492L31.399 100.764ZM31.5887 101.217C31.5887 101.334 31.5593 101.439 31.5007 101.535L31.829 101.735C31.9251 101.577 31.9732 101.403 31.9732 101.217H31.5887ZM31.499 101.538C31.4409 101.637 31.3631 101.716 31.2631 101.777L31.4632 102.106C31.6169 102.012 31.7403 101.887 31.8308 101.732L31.499 101.538ZM31.2642 101.777C31.1725 101.832 31.0678 101.861 30.9453 101.861V102.245C31.1323 102.245 31.3062 102.2 31.462 102.106L31.2642 101.777Z" fill="white"/>
<path d="M178.181 101.979V101.143L181.319 97.7078C181.688 97.3055 181.991 96.9558 182.229 96.6587C182.468 96.3585 182.644 96.0769 182.758 95.8138C182.876 95.5477 182.935 95.2691 182.935 94.9782C182.935 94.644 182.854 94.3547 182.694 94.1102C182.536 93.8657 182.319 93.6769 182.044 93.5438C181.768 93.4108 181.459 93.3442 181.115 93.3442C180.75 93.3442 180.431 93.42 180.159 93.5717C179.89 93.7202 179.681 93.9291 179.532 94.1984C179.387 94.4676 179.314 94.7833 179.314 95.1454H178.219C178.219 94.5883 178.347 94.0993 178.604 93.6785C178.861 93.2576 179.21 92.9295 179.653 92.6943C180.099 92.4591 180.598 92.3415 181.152 92.3415C181.709 92.3415 182.203 92.4591 182.633 92.6943C183.063 92.9295 183.401 93.2467 183.645 93.646C183.89 94.0452 184.012 94.4893 184.012 94.9782C184.012 95.3279 183.948 95.6699 183.822 96.0041C183.698 96.3353 183.481 96.7051 183.172 97.1136C182.865 97.519 182.44 98.0142 181.895 98.5991L179.76 100.883V100.957H184.179V101.979H178.181ZM189.197 102.108C188.498 102.108 187.902 101.918 187.41 101.538C186.918 101.154 186.542 100.598 186.282 99.871C186.022 99.1406 185.892 98.2587 185.892 97.225C185.892 96.1976 186.022 95.3202 186.282 94.5929C186.545 93.8626 186.922 93.3055 187.415 92.9218C187.91 92.535 188.504 92.3415 189.197 92.3415C189.89 92.3415 190.483 92.535 190.975 92.9218C191.47 93.3055 191.848 93.8626 192.108 94.5929C192.371 95.3202 192.502 96.1976 192.502 97.225C192.502 98.2587 192.372 99.1406 192.112 99.871C191.852 100.598 191.476 101.154 190.984 101.538C190.492 101.918 189.896 102.108 189.197 102.108ZM189.197 101.087C189.89 101.087 190.429 100.753 190.813 100.085C191.196 99.4161 191.388 98.4629 191.388 97.225C191.388 96.4018 191.3 95.7009 191.124 95.1221C190.95 94.5434 190.7 94.1024 190.372 93.7991C190.047 93.4959 189.655 93.3442 189.197 93.3442C188.51 93.3442 187.973 93.6831 187.586 94.3608C187.199 95.0355 187.006 95.9902 187.006 97.225C187.006 98.0482 187.093 98.7476 187.266 99.3232C187.439 99.8989 187.688 100.337 188.013 100.637C188.341 100.937 188.736 101.087 189.197 101.087ZM197.609 92.4715V101.979H196.457V93.6785H196.402L194.081 95.2196V94.0498L196.457 92.4715H197.609ZM200.12 100.029V99.0818L204.298 92.4715H204.985V93.9384H204.521L201.364 98.9333V99.0076H206.99V100.029H200.12ZM204.595 101.979V99.741V99.3V92.4715H205.69V101.979H204.595Z" fill="white"/>
<path d="M178.181 101.979H177.989V102.171H178.181V101.979ZM178.181 101.143L178.039 101.013L177.989 101.068V101.143H178.181ZM181.319 97.7078L181.178 97.578L181.178 97.5781L181.319 97.7078ZM182.229 96.6587L182.379 96.779L182.38 96.7782L182.229 96.6587ZM182.758 95.8138L182.583 95.7361L182.582 95.7371L182.758 95.8138ZM182.694 94.1102L182.532 94.2144L182.533 94.2159L182.694 94.1102ZM182.044 93.5438L182.127 93.3707V93.3707L182.044 93.5438ZM180.159 93.5717L180.252 93.74L180.252 93.7396L180.159 93.5717ZM179.532 94.1984L179.364 94.1055L179.363 94.107L179.532 94.1984ZM179.314 95.1454V95.3376H179.506V95.1454H179.314ZM178.219 95.1454H178.026V95.3376H178.219V95.1454ZM178.604 93.6785L178.768 93.7786H178.768L178.604 93.6785ZM179.653 92.6943L179.563 92.5243L179.563 92.5246L179.653 92.6943ZM182.633 92.6943L182.725 92.5257L182.633 92.6943ZM183.645 93.646L183.481 93.7464L183.645 93.646ZM183.822 96.0041L183.642 95.9359L183.641 95.9368L183.822 96.0041ZM183.172 97.1136L183.018 96.9975L183.018 96.9977L183.172 97.1136ZM181.895 98.5991L182.035 98.7304L182.036 98.7301L181.895 98.5991ZM179.76 100.883L179.619 100.752L179.567 100.807V100.883H179.76ZM179.76 100.957H179.567V101.149H179.76V100.957ZM184.179 100.957H184.371V100.765H184.179V100.957ZM184.179 101.979V102.171H184.371V101.979H184.179ZM178.374 101.979V101.143H177.989V101.979H178.374ZM178.323 101.273L181.461 97.8374L181.178 97.5781L178.039 101.013L178.323 101.273ZM181.461 97.8376C181.831 97.4334 182.137 97.0804 182.379 96.779L182.079 96.5384C181.845 96.8312 181.544 97.1776 181.178 97.578L181.461 97.8376ZM182.38 96.7782C182.625 96.469 182.812 96.1731 182.935 95.8905L182.582 95.7371C182.476 95.9807 182.31 96.248 182.079 96.5392L182.38 96.7782ZM182.934 95.8915C183.063 95.6009 183.127 95.2959 183.127 94.9782H182.743C182.743 95.2424 182.689 95.4944 182.583 95.7361L182.934 95.8915ZM183.127 94.9782C183.127 94.6119 183.038 94.2846 182.854 94.0045L182.533 94.2159C182.67 94.4247 182.743 94.6761 182.743 94.9782H183.127ZM182.855 94.0059C182.677 93.7302 182.433 93.5183 182.127 93.3707L181.96 93.7169C182.205 93.8355 182.394 94.0012 182.532 94.2144L182.855 94.0059ZM182.127 93.3707C181.823 93.2236 181.484 93.152 181.115 93.152V93.5365C181.433 93.5365 181.714 93.5979 181.96 93.7169L182.127 93.3707ZM181.115 93.152C180.723 93.152 180.371 93.2336 180.065 93.4037L180.252 93.7396C180.492 93.6065 180.777 93.5365 181.115 93.5365V93.152ZM180.066 93.4034C179.765 93.5694 179.53 93.8045 179.364 94.1055L179.701 94.2912C179.832 94.0538 180.014 93.871 180.252 93.74L180.066 93.4034ZM179.363 94.107C179.2 94.409 179.122 94.7572 179.122 95.1454H179.506C179.506 94.8093 179.574 94.5262 179.701 94.2897L179.363 94.107ZM179.314 94.9531H178.219V95.3376H179.314V94.9531ZM178.411 95.1454C178.411 94.6189 178.532 94.1655 178.768 93.7786L178.44 93.5783C178.162 94.0331 178.026 94.5577 178.026 95.1454H178.411ZM178.768 93.7786C179.007 93.3876 179.33 93.0834 179.743 92.8641L179.563 92.5246C179.09 92.7757 178.715 93.1275 178.44 93.5783L178.768 93.7786ZM179.743 92.8643C180.158 92.6451 180.626 92.5338 181.152 92.5338V92.1493C180.57 92.1493 180.039 92.2731 179.563 92.5243L179.743 92.8643ZM181.152 92.5338C181.682 92.5338 182.143 92.6453 182.541 92.863L182.725 92.5257C182.263 92.273 181.737 92.1493 181.152 92.1493V92.5338ZM182.541 92.863C182.943 93.0829 183.255 93.3771 183.481 93.7464L183.809 93.5456C183.546 93.1163 183.184 92.7762 182.725 92.5257L182.541 92.863ZM183.481 93.7464C183.706 94.114 183.82 94.5231 183.82 94.9782H184.204C184.204 94.4555 184.073 93.9764 183.809 93.5456L183.481 93.7464ZM183.82 94.9782C183.82 95.3041 183.761 95.623 183.642 95.9359L184.001 96.0724C184.136 95.7168 184.204 95.3518 184.204 94.9782H183.82ZM183.641 95.9368C183.526 96.2446 183.321 96.5978 183.018 96.9975L183.325 97.2297C183.641 96.8124 183.869 96.426 184.002 96.0715L183.641 95.9368ZM183.018 96.9977C182.717 97.3958 182.297 97.8856 181.754 98.4681L182.036 98.7301C182.583 98.1427 183.013 97.6422 183.325 97.2295L183.018 96.9977ZM181.755 98.4678L179.619 100.752L179.9 101.014L182.035 98.7304L181.755 98.4678ZM179.567 100.883V100.957H179.952V100.883H179.567ZM179.76 101.149H184.179V100.765H179.76V101.149ZM183.987 100.957V101.979H184.371V100.957H183.987ZM184.179 101.786H178.181V102.171H184.179V101.786ZM187.41 101.538L187.292 101.689L187.292 101.69L187.41 101.538ZM186.282 99.871L186.101 99.9355L186.101 99.9357L186.282 99.871ZM186.282 94.5929L186.101 94.5278L186.101 94.5282L186.282 94.5929ZM187.415 92.9218L187.533 93.0734L187.533 93.0733L187.415 92.9218ZM190.975 92.9218L190.856 93.0729L190.857 93.0737L190.975 92.9218ZM192.108 94.5929L191.927 94.6574L191.927 94.6583L192.108 94.5929ZM192.112 99.871L192.293 99.9357L192.293 99.9355L192.112 99.871ZM190.984 101.538L191.102 101.69L191.102 101.689L190.984 101.538ZM190.813 100.085L190.646 99.9888L190.813 100.085ZM191.124 95.1221L190.939 95.1773L190.94 95.1782L191.124 95.1221ZM190.372 93.7991L190.24 93.9397L190.241 93.9403L190.372 93.7991ZM187.586 94.3608L187.753 94.4565L187.753 94.4561L187.586 94.3608ZM187.266 99.3232L187.082 99.3787L187.266 99.3232ZM188.013 100.637L187.883 100.778L187.884 100.779L188.013 100.637ZM189.197 101.916C188.535 101.916 187.982 101.737 187.527 101.385L187.292 101.69C187.822 102.099 188.461 102.301 189.197 102.301V101.916ZM187.528 101.386C187.071 101.029 186.713 100.507 186.463 99.8063L186.101 99.9357C186.37 100.689 186.765 101.278 187.292 101.689L187.528 101.386ZM186.463 99.8065C186.212 99.1025 186.084 98.2436 186.084 97.225H185.7C185.7 98.2737 185.831 99.1788 186.101 99.9355L186.463 99.8065ZM186.084 97.225C186.084 96.2128 186.212 95.3586 186.463 94.6577L186.101 94.5282C185.831 95.2819 185.7 96.1824 185.7 97.225H186.084ZM186.463 94.6581C186.716 93.9536 187.076 93.4299 187.533 93.0734L187.296 92.7702C186.769 93.1811 186.373 93.7716 186.101 94.5278L186.463 94.6581ZM187.533 93.0733C187.991 92.7156 188.542 92.5338 189.197 92.5338V92.1493C188.466 92.1493 187.829 92.3543 187.296 92.7703L187.533 93.0733ZM189.197 92.5338C189.852 92.5338 190.402 92.7156 190.856 93.0729L191.094 92.7707C190.564 92.3543 189.928 92.1493 189.197 92.1493V92.5338ZM190.857 93.0737C191.317 93.4302 191.676 93.9534 191.927 94.6574L192.289 94.5285C192.019 93.7717 191.623 93.1809 191.093 92.7698L190.857 93.0737ZM191.927 94.6583C192.18 95.359 192.31 96.213 192.31 97.225H192.694C192.694 96.1822 192.561 95.2814 192.288 94.5276L191.927 94.6583ZM192.31 97.225C192.31 98.2436 192.182 99.1025 191.931 99.8065L192.293 99.9355C192.563 99.1788 192.694 98.2737 192.694 97.225H192.31ZM191.931 99.8063C191.681 100.507 191.323 101.029 190.866 101.386L191.102 101.689C191.629 101.278 192.024 100.689 192.293 99.9357L191.931 99.8063ZM190.867 101.385C190.412 101.737 189.859 101.916 189.197 101.916V102.301C189.933 102.301 190.572 102.099 191.102 101.69L190.867 101.385ZM189.197 101.279C189.968 101.279 190.566 100.9 190.979 100.18L190.646 99.9888C190.292 100.606 189.813 100.895 189.197 100.895V101.279ZM190.979 100.18C191.387 99.4701 191.58 98.4782 191.58 97.225H191.196C191.196 98.4476 191.006 99.3621 190.646 99.9888L190.979 100.18ZM191.58 97.225C191.58 96.3892 191.491 95.6682 191.307 95.0661L190.94 95.1782C191.109 95.7335 191.196 96.4145 191.196 97.225H191.58ZM191.308 95.067C191.128 94.4665 190.863 93.9915 190.502 93.658L190.241 93.9403C190.536 94.2134 190.773 94.6203 190.939 95.1773L191.308 95.067ZM190.503 93.6586C190.141 93.321 189.702 93.152 189.197 93.152V93.5365C189.608 93.5365 189.952 93.6707 190.24 93.9397L190.503 93.6586ZM189.197 93.152C188.43 93.152 187.835 93.5377 187.419 94.2655L187.753 94.4561C188.111 93.8285 188.59 93.5365 189.197 93.5365V93.152ZM187.42 94.2652C187.009 94.9813 186.814 95.9745 186.814 97.225H187.198C187.198 96.0059 187.39 95.0897 187.753 94.4565L187.42 94.2652ZM186.814 97.225C186.814 98.0606 186.902 98.7798 187.082 99.3787L187.45 99.2678C187.284 98.7154 187.198 98.0358 187.198 97.225H186.814ZM187.082 99.3787C187.262 99.9758 187.525 100.448 187.883 100.778L188.144 100.496C187.852 100.226 187.617 99.8219 187.45 99.2678L187.082 99.3787ZM187.884 100.779C188.248 101.113 188.69 101.279 189.197 101.279V100.895C188.782 100.895 188.434 100.762 188.143 100.495L187.884 100.779ZM197.609 92.4715H197.801V92.2793H197.609V92.4715ZM197.609 101.979V102.171H197.801V101.979H197.609ZM196.457 101.979H196.265V102.171H196.457V101.979ZM196.457 93.6785H196.65V93.4862H196.457V93.6785ZM196.402 93.6785V93.4862H196.344L196.295 93.5183L196.402 93.6785ZM194.081 95.2196H193.888V95.578L194.187 95.3798L194.081 95.2196ZM194.081 94.0498L193.974 93.8897L193.888 93.9467V94.0498H194.081ZM196.457 92.4715V92.2793H196.399L196.351 92.3114L196.457 92.4715ZM197.416 92.4715V101.979H197.801V92.4715H197.416ZM197.609 101.786H196.457V102.171H197.609V101.786ZM196.65 101.979V93.6785H196.265V101.979H196.65ZM196.457 93.4862H196.402V93.8707H196.457V93.4862ZM196.295 93.5183L193.974 95.0595L194.187 95.3798L196.508 93.8386L196.295 93.5183ZM194.273 95.2196V94.0498H193.888V95.2196H194.273ZM194.187 94.21L196.564 92.6317L196.351 92.3114L193.974 93.8897L194.187 94.21ZM196.457 92.6637H197.609V92.2793H196.457V92.6637ZM200.12 100.029H199.928V100.221H200.12V100.029ZM200.12 99.0819L199.957 98.9791L199.928 99.0262V99.0819H200.12ZM204.298 92.4715V92.2793H204.192L204.135 92.3688L204.298 92.4715ZM204.985 92.4715H205.177V92.2793H204.985V92.4715ZM204.985 93.9384V94.1306H205.177V93.9384H204.985ZM204.521 93.9384V93.7462H204.415L204.358 93.8357L204.521 93.9384ZM201.364 98.9333L201.201 98.8306L201.172 98.8777V98.9333H201.364ZM201.364 99.0076H201.172V99.1998H201.364V99.0076ZM206.99 99.0076H207.182V98.8153H206.99V99.0076ZM206.99 100.029V100.221H207.182V100.029H206.99ZM204.595 101.979H204.403V102.171H204.595V101.979ZM204.595 92.4715V92.2793H204.403V92.4715H204.595ZM205.69 92.4715H205.883V92.2793H205.69V92.4715ZM205.69 101.979V102.171H205.883V101.979H205.69ZM200.312 100.029V99.0819H199.928V100.029H200.312ZM200.282 99.1846L204.46 92.5742L204.135 92.3688L199.957 98.9791L200.282 99.1846ZM204.298 92.6637H204.985V92.2793H204.298V92.6637ZM204.793 92.4715V93.9384H205.177V92.4715H204.793ZM204.985 93.7462H204.521V94.1306H204.985V93.7462ZM204.358 93.8357L201.201 98.8306L201.527 99.036L204.683 94.0411L204.358 93.8357ZM201.172 98.9333V99.0076H201.556V98.9333H201.172ZM201.364 99.1998H206.99V98.8153H201.364V99.1998ZM206.798 99.0076V100.029H207.182V99.0076H206.798ZM206.99 99.8366H200.12V100.221H206.99V99.8366ZM204.787 101.979V99.741H204.403V101.979H204.787ZM204.787 99.741V99.3H204.403V99.741H204.787ZM204.787 99.3V92.4715H204.403V99.3H204.787ZM204.595 92.6637H205.69V92.2793H204.595V92.6637ZM205.498 92.4715V101.979H205.883V92.4715H205.498ZM205.69 101.786H204.595V102.171H205.69V101.786Z" fill="white"/>
<path d="M19.2975 22.3769C18.1749 22.696 17.2175 23.0843 16.4294 23.538C15.2452 24.2185 14.4762 24.9567 14.1187 25.7333C13.7611 26.51 13.8957 27.2174 14.4993 27.8518C14.8453 28.2132 15.2644 28.4592 15.7565 28.59C16.2525 28.7207 16.7908 28.7707 17.3829 28.7399C17.9711 28.7091 18.594 28.6322 19.2476 28.5015C19.9012 28.3708 20.5702 28.2362 21.2468 28.0863C21.985 27.9248 22.7194 27.7826 23.4422 27.6711C24.165 27.5596 24.8609 27.5134 25.5299 27.5365C26.1989 27.5596 26.8179 27.6826 27.3869 27.9133C27.9559 28.144 28.4404 28.5054 28.8402 29.0013C29.786 30.174 29.8591 31.4043 29.1132 32.6961C28.1828 34.3109 26.5795 35.3913 25.0916 36.3294C23.8997 37.083 22.3387 37.7558 20.5548 38.4171C20.501 38.4094 20.474 38.4056 20.4202 38.3941C19.5321 37.1291 19.0899 36.4948 18.221 35.2221C18.4133 35.0607 18.5094 34.9799 18.7055 34.8223C19.9627 35.5528 20.5855 35.918 21.8235 36.6639C22.877 36.3833 23.842 35.9834 24.7186 35.4644C25.899 34.7685 26.6602 34.0533 27.0024 33.2959C27.3484 32.5385 27.2254 31.8042 26.6256 31.0967C26.3104 30.7276 25.922 30.4623 25.4568 30.3047C24.9916 30.1471 24.4803 30.074 23.9266 30.0894C23.3691 30.1009 22.777 30.1663 22.1465 30.2816C21.516 30.397 20.8624 30.5277 20.2088 30.6777C19.4744 30.8468 18.7324 31.0121 17.998 31.1506C17.2637 31.289 16.5486 31.3736 15.8527 31.3928C15.1568 31.4158 14.4916 31.3274 13.8572 31.1275C13.2229 30.9276 12.6577 30.5815 12.1655 30.0894C11.1774 29.0975 11.0621 27.9094 11.8503 26.533C12.8345 24.8221 14.507 23.6879 16.091 22.7075C17.5174 21.8232 19.2553 21.0966 20.8893 20.5391C20.9469 20.5429 20.9777 20.5468 21.0354 20.5506C21.6082 21.8194 21.9004 22.4537 22.4925 23.7148C22.3003 23.8532 22.2042 23.9224 22.0119 24.0647C20.9354 23.3803 20.3971 23.042 19.3052 22.3692L19.2975 22.3769Z" fill="white"/>
<path d="M40.9043 11.1923C45.2258 14.2643 49.4243 17.4708 53.5112 20.8503C53.9611 21.2271 54.3148 21.4655 54.5762 21.5693C54.8377 21.6693 55.1568 21.7077 55.5297 21.6808C56.0834 21.6346 56.3602 21.6116 56.91 21.5693C57.0023 21.7346 57.0446 21.8192 57.1368 21.9845C55.9719 22.319 54.8992 22.6497 53.9188 22.9688C52.9192 23.2956 51.7503 23.7031 50.4201 24.2029C50.3086 24.0453 50.2509 23.9646 50.1394 23.8069C50.5777 23.5224 50.7968 23.3802 51.2351 23.0995C51.3851 22.9918 51.4851 22.8996 51.5312 22.8188C51.5773 22.7381 51.5696 22.642 51.5081 22.5228C51.4389 22.3921 51.3044 22.2383 51.0967 22.0614C50.893 21.8846 50.6123 21.65 50.2547 21.3617C49.1936 20.5004 48.6592 20.0698 47.575 19.224C45.3834 20.0045 43.2073 20.8349 41.0504 21.7115C41.1196 22.9457 41.1619 23.5609 41.2619 24.7873C41.3042 25.2141 41.3426 25.5486 41.3734 25.7985C41.4041 26.0484 41.458 26.2291 41.5349 26.3483C41.6041 26.4521 41.6963 26.5175 41.8117 26.5329C41.927 26.5521 42.077 26.5444 42.2654 26.5136C42.8075 26.4137 43.0766 26.3675 43.6187 26.2753C43.7379 26.4406 43.7956 26.5213 43.9109 26.6866C42.6921 27.1595 41.704 27.5709 40.9466 27.8977C40.1892 28.2245 39.351 28.609 38.4398 29.0512C38.3053 28.9051 38.2361 28.832 38.0977 28.6859C38.5244 28.3399 38.7397 28.1669 39.1703 27.8247C39.4395 27.6094 39.601 27.3902 39.6471 27.1672C39.6932 26.9442 39.7009 26.629 39.6702 26.2214C39.3626 21.4347 39.2972 16.6903 39.4702 11.8998C40.0393 11.6114 40.3276 11.4691 40.9005 11.1885L40.9043 11.1923ZM41.012 20.6504C42.8805 19.9122 44.7491 19.1971 46.6368 18.505C44.7414 17.0517 42.8228 15.6292 40.8736 14.2489C40.8851 16.3866 40.9312 18.5127 41.012 20.6504Z" fill="white"/>
<path d="M69.4944 15.3708C69.629 15.7783 69.752 16.1436 69.8635 16.4704C69.975 16.7933 70.0788 17.0894 70.175 17.3508C70.2519 17.5584 70.4172 17.6661 70.6632 17.6738C71.3168 17.6815 71.6398 17.6853 72.2896 17.7007C72.3588 17.8737 72.3972 17.9583 72.4664 18.1313C71.3784 18.3274 70.298 18.5427 69.2215 18.7811C68.1257 19.0233 67.0107 19.2924 65.8804 19.5885C65.792 19.4193 65.7497 19.3347 65.6612 19.1694C66.2725 18.858 66.5763 18.7042 67.1914 18.3966C67.4029 18.2966 67.4913 18.1544 67.449 17.9967C67.376 17.7314 67.2606 17.42 67.1453 17.0855C67.03 16.751 66.9031 16.3819 66.757 15.9744C65.7804 13.2369 64.8039 10.4995 63.8273 7.76202C63.7043 7.416 63.5928 7.10842 63.489 6.8316C63.3851 6.55477 63.289 6.30487 63.2006 6.08572C63.1314 5.9127 62.9661 5.82427 62.7123 5.82812C61.8972 5.84734 61.4897 5.85888 60.6746 5.88579C60.5977 5.71662 60.5593 5.63204 60.4785 5.45902C61.805 5.16682 63.1006 4.87847 64.3656 4.60164C64.6155 4.54782 64.9307 4.47092 65.3114 4.37865C65.692 4.28637 66.1572 4.17488 66.7032 4.048C67.2606 3.91728 67.7259 3.81347 68.1026 3.73273C68.4756 3.65199 68.7793 3.58279 68.9946 3.54818C70.7786 3.24829 72.774 2.94071 74.6003 3.47513C75.9382 3.86345 76.7341 4.65163 77.0071 5.78967C77.2531 6.81622 77.0532 7.7082 76.4265 8.4733C75.8037 9.23456 74.7464 9.91893 73.2661 10.5495C74.0735 11.0954 74.8156 11.6298 75.4922 12.1566C76.1689 12.6833 76.7918 13.1677 77.3569 13.6099C77.9221 14.052 78.4296 14.4403 78.8833 14.7787C79.337 15.117 79.7407 15.3746 80.1021 15.5592C80.2866 15.6514 80.4673 15.7322 80.6442 15.7937C80.8211 15.8552 81.0018 15.9052 81.1863 15.936C81.3709 15.9667 81.5592 15.9898 81.7592 16.0052C81.9591 16.0205 82.1783 16.0321 82.4166 16.0436C82.4705 16.2243 82.5012 16.3127 82.555 16.4934C81.9053 16.6472 81.3593 16.7549 80.9095 16.8202C80.5327 16.8741 80.2021 16.9164 79.9137 16.9471C79.6253 16.9779 79.3639 16.9894 79.1332 16.9817C78.8987 16.974 78.6834 16.9548 78.4873 16.9164C78.2912 16.8818 78.0874 16.8241 77.8875 16.751C77.4492 16.6011 76.9955 16.355 76.5188 16.0167C76.042 15.6784 75.5307 15.29 74.9886 14.8556C74.4465 14.4211 73.8698 13.9598 73.2623 13.4676C72.6548 12.9793 72.0204 12.5103 71.3591 12.0604C71.1631 11.9259 70.9977 11.8221 70.867 11.7452C70.7363 11.6683 70.5979 11.6183 70.4595 11.5875C70.3211 11.5568 70.1673 11.5491 69.9981 11.5606C69.8289 11.5722 69.6175 11.6029 69.3599 11.6452C68.9523 11.7221 68.7486 11.7567 68.341 11.8375C68.8062 13.2523 69.0408 13.9559 69.506 15.3708H69.4944ZM68.0796 11.0723C68.6794 10.9685 69.2292 10.8647 69.7367 10.7609C71.4207 10.4226 72.5818 9.94584 73.2315 9.29608C73.8813 8.65016 74.0735 7.79278 73.7852 6.71241C73.5045 5.67048 72.9124 4.97458 71.9897 4.63625C71.0669 4.29791 69.7559 4.28637 68.0757 4.62087C67.7874 4.67854 67.4836 4.74774 67.1607 4.82848C66.8377 4.90922 66.4917 5.00534 66.1226 5.10915C66.7762 7.09304 67.4298 9.08077 68.0834 11.0647L68.0796 11.0723Z" fill="white"/>
<path d="M99.8908 0.00384475C102.351 4.19462 104.631 8.4469 106.742 12.8261C106.973 13.3144 107.18 13.645 107.369 13.818C107.557 13.991 107.83 14.1256 108.184 14.214C108.711 14.3409 108.972 14.4063 109.491 14.537C109.491 14.7177 109.495 14.81 109.499 14.9907C108.28 14.9368 107.15 14.9099 106.108 14.9022C105.047 14.8945 103.793 14.9061 102.355 14.9522C102.328 14.7715 102.317 14.6792 102.29 14.4985C102.821 14.3717 103.086 14.3101 103.616 14.1871C103.805 14.1371 103.936 14.0795 104.016 14.0218C104.097 13.9603 104.135 13.868 104.135 13.7411C104.135 13.6027 104.082 13.4182 103.982 13.1875C103.882 12.9606 103.736 12.6569 103.551 12.2801C102.997 11.1574 102.717 10.5961 102.136 9.47345C99.7832 9.5119 97.4264 9.59648 95.0772 9.73105C94.562 10.8883 94.3121 11.4689 93.8238 12.6261C93.6624 13.0298 93.5393 13.3528 93.4509 13.5912C93.3625 13.8295 93.324 14.0141 93.3394 14.1487C93.3509 14.2678 93.4048 14.3524 93.5009 14.4063C93.597 14.4601 93.7354 14.5024 93.9161 14.5331C94.4505 14.6139 94.7158 14.6523 95.2464 14.7369C95.2733 14.9253 95.2887 15.0214 95.3156 15.2098C93.9968 15.2636 92.9165 15.3328 92.0822 15.3944C91.2479 15.4597 90.3174 15.5481 89.2947 15.6635C89.2409 15.4866 89.214 15.3982 89.1602 15.2213C89.7023 15.0368 89.9752 14.9484 90.525 14.7715C90.8672 14.6562 91.1133 14.5062 91.2594 14.3178C91.4055 14.1294 91.5593 13.8411 91.7208 13.4566C93.697 8.9275 95.8731 4.5368 98.2645 0.207616C98.9143 0.123032 99.2411 0.0807396 99.8908 0V0.00384475ZM95.5347 8.75064C97.5648 8.65452 99.5871 8.58147 101.621 8.53149C100.594 6.60143 99.5294 4.69443 98.4221 2.81051C97.4148 4.76748 96.4498 6.74753 95.5347 8.75064Z" fill="white"/>
<path d="M123.767 4.10652C123.325 6.92088 122.879 9.73523 122.437 12.5496C122.306 13.3724 122.206 14.0567 122.141 14.5988C122.118 14.7949 122.218 14.9256 122.433 14.991C123.075 15.2063 123.394 15.314 124.029 15.537C124.006 15.7253 123.994 15.8215 123.975 16.0099C122.825 15.8561 121.88 15.7523 121.138 15.6792C120.415 15.61 119.457 15.5331 118.258 15.4601C118.258 15.2794 118.258 15.1871 118.258 15.0064C118.965 14.9064 119.319 14.8564 120.026 14.7642C120.276 14.7296 120.419 14.6334 120.449 14.4758C120.553 13.9222 120.657 13.2186 120.772 12.3958C121.176 9.56606 121.576 6.73633 121.98 3.91044C122.079 3.21454 122.153 2.63014 122.195 2.16877C122.21 1.98807 122.103 1.85735 121.868 1.78045C121.114 1.54592 120.734 1.43443 119.973 1.20759C119.98 1.02688 119.988 0.934609 119.996 0.753906C121.353 0.888472 122.422 0.99997 123.21 1.07686C123.683 1.123 124.163 1.1576 124.652 1.17683C128.32 5.19459 131.714 9.36998 134.867 13.803C135.59 11.1578 136.309 8.5126 137.032 5.87126C137.212 5.20612 137.366 4.62556 137.47 4.14882C137.505 3.99118 137.397 3.86046 137.155 3.7605C136.463 3.49521 136.113 3.36064 135.417 3.10305C135.452 2.91081 135.471 2.81469 135.505 2.62245C136.828 2.86852 137.901 3.06844 138.72 3.21839C139.55 3.36833 140.615 3.55288 141.911 3.77972C141.88 3.96042 141.868 4.0527 141.838 4.2334C141.011 4.23724 140.6 4.24109 139.773 4.25647C139.519 4.268 139.362 4.36028 139.304 4.53714C139.15 4.98313 138.977 5.55215 138.781 6.23651C137.678 10.062 136.574 13.8837 135.471 17.7092C135.002 17.6554 134.767 17.6323 134.298 17.5824C131.08 12.8418 127.574 8.39341 123.756 4.11806L123.767 4.10652Z" fill="white"/>
<path d="M150.726 21.304C149.653 20.9926 148.546 20.6966 147.404 20.4159C147.454 20.239 147.477 20.1506 147.527 19.9699C148.25 19.9968 148.612 20.0122 149.338 20.0506C149.596 20.0622 149.761 19.993 149.834 19.843C149.961 19.5854 150.092 19.2855 150.242 18.9587C150.388 18.6319 150.549 18.2705 150.722 17.8707C151.887 15.1832 153.056 12.4919 154.221 9.80439C154.367 9.46605 154.498 9.15847 154.609 8.8855C154.721 8.61252 154.825 8.36261 154.905 8.14346C154.971 7.97045 154.898 7.8205 154.69 7.70516C154.01 7.34375 153.667 7.16305 152.979 6.80549C153.037 6.62863 153.068 6.54405 153.125 6.36719C154.425 6.74013 155.686 7.10538 156.912 7.46294C157.92 7.75514 158.896 8.02812 159.842 8.28187C160.788 8.53562 161.776 8.8086 162.726 9.13925C165.259 10.0235 168.008 11.1347 169.612 13.4031C170.776 15.0486 170.427 17.2209 169.389 18.8588C168.047 20.9772 165.924 22.6266 163.483 23.2879C160.807 24.0107 157.808 23.5724 155.201 22.742C154.352 22.469 153.594 22.2229 152.933 21.9961C152.272 21.7731 151.534 21.5386 150.718 21.304H150.726ZM152.41 20.8004C152.91 21.0118 153.41 21.2002 153.902 21.3732C154.394 21.5462 154.898 21.7077 155.398 21.873C157.351 22.5113 159.538 22.7996 161.53 22.1845C163.475 21.5808 165.132 20.0276 166.001 18.309C166.747 16.8364 167.616 14.9102 166.678 13.1993C165.636 11.3 163.341 10.2773 161.365 9.66598C160.922 9.52757 160.423 9.37378 159.873 9.21999C159.323 9.0662 158.7 8.90087 157.997 8.72786L152.41 20.8042V20.8004Z" fill="white"/>
<path d="M192.354 21.8423C191.293 26.4829 190.043 31.039 188.582 35.5719C188.413 36.0794 188.344 36.4485 188.371 36.6869C188.401 36.9214 188.532 37.1675 188.763 37.4174C189.113 37.7865 189.286 37.971 189.628 38.344C189.497 38.4901 189.432 38.5631 189.297 38.7131C188.309 38.0479 187.375 37.452 186.498 36.9214C185.61 36.3793 184.545 35.7565 183.299 35.0683C183.411 34.9106 183.468 34.8299 183.58 34.6722C184.118 34.8376 184.387 34.9183 184.929 35.0913C185.126 35.1451 185.276 35.1682 185.391 35.1605C185.502 35.1528 185.606 35.099 185.698 34.9952C185.802 34.8837 185.895 34.7068 185.979 34.4762C186.064 34.2455 186.168 33.9264 186.294 33.5304C186.667 32.35 186.844 31.7579 187.19 30.5699C185.179 29.4203 183.142 28.3169 181.081 27.2596C179.789 27.9324 179.151 28.2746 177.882 28.9666C177.448 29.2127 177.105 29.4088 176.856 29.5587C176.606 29.7048 176.436 29.8394 176.348 29.9509C176.271 30.0509 176.252 30.147 176.29 30.2393C176.329 30.3277 176.413 30.4315 176.544 30.543C176.929 30.8698 177.121 31.0313 177.501 31.3619C177.386 31.5272 177.328 31.608 177.209 31.7733C176.064 31.1658 175.118 30.6891 174.376 30.3315C173.634 29.974 172.792 29.5895 171.854 29.1819C171.942 29.0128 171.984 28.9282 172.069 28.759C172.657 28.8782 172.949 28.9397 173.538 29.0628C173.907 29.1397 174.222 29.1397 174.487 29.0628C174.749 28.982 175.091 28.8282 175.514 28.5975C180.527 25.9293 185.625 23.4763 190.831 21.2041C191.439 21.4579 191.742 21.5886 192.35 21.85L192.354 21.8423ZM182.2 26.6906C183.968 27.621 185.722 28.5706 187.463 29.5434C188.017 27.4864 188.54 25.4295 189.032 23.3572C186.733 24.4222 184.453 25.5333 182.2 26.6867V26.6906Z" fill="white"/>
<path d="M49.6934 162.291C50.7699 159.235 51.9464 156.236 53.2421 153.264C53.6957 153.694 53.9226 153.906 54.3839 154.329C53.6265 156.059 53.269 156.935 52.5885 158.712C52.1232 159.93 51.7119 161.026 51.2428 162.018C51.2543 162.026 51.2582 162.034 51.2697 162.041C52.2501 161.495 53.4074 160.972 54.6031 160.419C56.414 159.584 57.306 159.146 59.0515 158.239C59.5321 158.608 59.7743 158.792 60.2626 159.15C57.2444 160.703 54.1917 162.126 51.0582 163.437C50.5084 162.983 50.2355 162.756 49.6972 162.291H49.6934Z" fill="white"/>
<path d="M64.9576 162.338C63.2582 164.814 61.5588 167.29 59.8595 169.766C59.3212 169.431 59.0559 169.262 58.5215 168.916C60.2708 166.471 62.0202 164.029 63.7734 161.584C64.2463 161.892 64.4847 162.042 64.9614 162.338H64.9576Z" fill="white"/>
<path d="M69.683 165.163C70.3289 165.394 71.1517 165.728 72.159 166.209C73.4009 166.801 74.1967 167.451 74.5889 168.127C74.9464 168.743 75.0156 169.473 74.685 170.2C74.3467 170.934 73.7969 171.399 73.0779 171.595C72.0898 171.864 70.7518 171.653 69.4292 171.019C69.0255 170.823 68.6603 170.63 68.3835 170.419C67.6876 171.676 67.3415 172.307 66.6495 173.564C66.0882 173.283 65.8075 173.141 65.25 172.849C66.7302 170.288 68.2105 167.728 69.6868 165.167L69.683 165.163ZM68.8371 169.588C69.0947 169.792 69.4485 169.996 69.8944 170.211C71.5054 170.984 72.8011 170.799 73.3393 169.685C73.8545 168.62 73.1663 167.708 71.763 167.035C71.2093 166.77 70.7672 166.597 70.525 166.536C69.8522 167.758 69.5138 168.366 68.841 169.588H68.8371Z" fill="white"/>
<path d="M81.5659 175.152C81.4582 175.479 81.4044 175.64 81.2967 175.967C79.6704 175.483 78.863 175.221 77.2598 174.652C77.3866 174.333 77.4482 174.172 77.575 173.853C79.1591 174.414 79.9588 174.675 81.5659 175.152Z" fill="white"/>
<path d="M91.7047 175.06C91.6355 175.429 91.6009 175.614 91.5317 175.979C90.1591 175.748 89.4709 175.617 88.106 175.325C87.687 177.094 87.2679 178.858 86.8488 180.627C86.2413 180.496 85.9376 180.431 85.334 180.289L86.9296 174.103C88.8289 174.545 89.7824 174.737 91.7009 175.06H91.7047Z" fill="white"/>
<path d="M103.324 179.285C103.278 181.592 100.956 182.603 98.9525 182.472C97.0224 182.345 94.9694 181.007 95.2577 178.835C95.5345 176.716 97.6607 175.713 99.5984 175.84C101.475 175.963 103.366 177.216 103.324 179.281V179.285ZM96.7764 178.962C96.6226 180.35 97.5799 181.507 99.0948 181.611C100.575 181.711 101.728 180.711 101.79 179.277C101.836 178.2 101.217 176.82 99.5023 176.705C97.7875 176.59 96.911 177.754 96.7764 178.962Z" fill="white"/>
<path d="M108.413 178.181C108.375 177.366 108.313 176.708 108.252 176.105C108.767 176.086 109.029 176.07 109.544 176.043C109.598 176.478 109.625 176.697 109.678 177.131C109.69 177.131 109.698 177.131 109.713 177.131C110.259 176.32 111.155 175.813 112.435 175.686C114.254 175.509 115.949 176.666 116.245 178.512C116.587 180.642 114.846 182.176 112.854 182.337C111.728 182.429 110.69 182.137 110.136 181.537C110.12 181.537 110.113 181.537 110.101 181.537C110.194 182.918 110.236 183.61 110.328 184.99C109.69 185.028 109.371 185.044 108.729 185.071C108.625 182.775 108.517 180.48 108.413 178.181ZM109.986 179.803C109.997 179.973 110.044 180.13 110.086 180.273C110.417 181.057 111.389 181.553 112.497 181.453C114.131 181.311 114.946 180.196 114.757 178.746C114.592 177.481 113.615 176.505 112.081 176.639C111.093 176.728 110.213 177.351 109.982 178.231C109.94 178.377 109.901 178.554 109.913 178.708C109.94 179.142 109.955 179.361 109.986 179.8V179.803Z" fill="white"/>
<path d="M128.6 175.898C129.334 178.093 127.431 179.774 125.493 180.247C123.594 180.712 121.218 180.062 120.756 177.913C120.307 175.825 122.014 174.222 123.886 173.764C125.732 173.314 127.938 173.926 128.6 175.898ZM122.24 177.574C122.56 178.935 123.855 179.747 125.335 179.389C126.781 179.039 127.55 177.736 127.127 176.36C126.812 175.321 125.755 174.206 124.082 174.614C122.406 175.022 121.964 176.394 122.24 177.574Z" fill="white"/>
<path d="M138.046 168.988C138.884 170.638 139.726 172.291 140.565 173.94C140.891 173.794 141.053 173.721 141.38 173.575C141.887 174.621 142.141 175.148 142.645 176.197C142.183 176.416 141.953 176.524 141.487 176.732C141.095 176.013 140.895 175.651 140.503 174.932C138.658 175.74 136.816 176.497 134.936 177.216C135.217 177.981 135.359 178.366 135.64 179.131C135.163 179.308 134.924 179.392 134.444 179.561C133.994 178.489 133.771 177.954 133.325 176.881C133.598 176.782 133.733 176.728 134.006 176.624C134.202 176.116 134.302 175.613 134.305 175.117C134.313 174.267 134.121 173.417 133.775 172.587C133.517 171.972 133.387 171.664 133.129 171.045C134.79 170.422 136.443 169.73 138.05 168.984L138.046 168.988ZM135.109 172.368C135.451 173.144 135.643 173.959 135.663 174.713C135.674 175.178 135.601 175.632 135.493 176.059C136.974 175.494 137.704 175.194 139.157 174.555C138.346 172.883 137.943 172.045 137.131 170.372C136.155 170.799 135.666 171.003 134.678 171.399C134.848 171.787 134.936 171.983 135.105 172.372L135.109 172.368Z" fill="white"/>
<path d="M151.31 165.09C152.748 166.955 151.41 169.181 149.695 170.234C147.996 171.276 145.493 171.407 144.336 169.5C143.213 167.647 144.374 165.575 146.031 164.563C147.681 163.552 150.022 163.418 151.314 165.094L151.31 165.09ZM145.666 168.708C146.42 169.904 147.942 170.273 149.265 169.462C150.557 168.67 150.883 167.182 150.026 166.001C149.38 165.113 147.992 164.387 146.493 165.306C144.997 166.224 145.013 167.67 145.666 168.708Z" fill="white"/>
<path d="M154.624 158.596C155.385 159.43 155.762 159.849 156.523 160.688C156.639 160.591 156.696 160.545 156.808 160.449C157.035 158.792 157.119 157.969 157.246 156.328C157.792 155.836 158.061 155.586 158.596 155.078C158.396 156.897 158.269 157.808 157.946 159.642C159.069 158.815 160.18 158.742 161.529 159.088C162.014 159.227 162.698 159.453 163.379 159.534C162.879 160.011 162.629 160.245 162.117 160.707C161.737 160.672 161.141 160.522 160.557 160.319C159.368 159.972 158.434 160.161 157.304 161.095C157.212 161.172 157.165 161.21 157.069 161.287C157.838 162.137 158.227 162.56 158.996 163.406C158.5 163.817 158.246 164.017 157.742 164.417C156.316 162.783 154.889 161.149 153.467 159.519C153.928 159.154 154.159 158.965 154.616 158.588L154.624 158.596Z" fill="white"/>
</svg>
